<svg width="40" height="30" viewBox="0 0 40 30" fill="none" xmlns="http://www.w3.org/2000/svg">
<path fill="currentColor" d="M38.1827 29.0909H12.7364C11.7345 29.0909 10.9182 28.2764 10.9182 27.2736V25.4564C10.9182 25.1236 11.1009 24.8182 11.3927 24.6582L20.2891 19.8064C17.3091 16.5836 17.2764 12.0245 17.2764 11.8136L17.2818 6.36545C17.2818 6.31455 17.2864 6.26455 17.2945 6.21545C17.9209 2.50091 22.0218 0.00636364 25.4591 0.00636364H25.4627C28.8982 0.00636364 32.9982 2.49909 33.6264 6.21273C33.6345 6.26273 33.6391 6.31364 33.6391 6.36364L33.6418 11.8127C33.6418 12.0227 33.6091 16.5818 30.63 19.8045L39.5264 24.6564C39.8182 24.8164 40 25.1218 40 25.4545V27.2736C40 28.2764 39.1845 29.0909 38.1827 29.0909ZM28.66 20.8C28.3936 20.6545 28.2173 20.3864 28.1891 20.0845C28.1618 19.7827 28.2873 19.4873 28.5218 19.2964C31.7918 16.6455 31.8245 11.8618 31.8245 11.8136L31.8209 6.44455C31.31 3.71727 28.0755 1.82273 25.4591 1.82273C22.8418 1.82364 19.6091 3.71909 19.1 6.44636L19.0945 11.8155C19.0945 11.8618 19.1445 16.6609 22.3964 19.2982C22.6318 19.4891 22.7573 19.7845 22.7291 20.0864C22.7018 20.3882 22.5255 20.6564 22.2591 20.8018L12.7364 25.9964V27.2736H38.1809L38.1818 25.9955L28.66 20.8ZM16.9518 2.29091C16.1491 1.97909 15.3164 1.81545 14.5409 1.81545C11.9236 1.81636 8.69 3.71182 8.18091 6.43909L8.17546 11.8082C8.17546 11.8555 8.22455 16.6536 11.4773 19.2909C11.7127 19.4818 11.8382 19.7773 11.8109 20.0791C11.7827 20.3809 11.6064 20.6491 11.34 20.7945L1.81727 25.9891V27.2664H8.18C8.68182 27.2664 9.08818 27.6736 9.08818 28.1755C9.08818 28.6773 8.68182 29.0845 8.18 29.0845H1.81727C0.815455 29.0845 0 28.2691 0 27.2664V25.4491C0 25.1173 0.181818 24.8109 0.473636 24.6518L9.37 19.7991C6.39091 16.5764 6.35727 12.0173 6.35727 11.8073L6.36273 6.35818C6.36273 6.30818 6.36727 6.25727 6.37545 6.20818C7.00182 2.49455 11.1027 0 14.5409 0C14.5445 0 14.55 0 14.5545 0C15.5464 0 16.6018 0.206364 17.6082 0.596364C18.0773 0.778182 18.3091 1.30455 18.1282 1.77182C17.9455 2.24 17.4164 2.47273 16.9518 2.29091Z"/>
</svg>
