<svg width="36" height="34" viewBox="0 0 36 34" fill="none" xmlns="http://www.w3.org/2000/svg">
<path fill="currentColor" d="M28.1429 0C29.5883 0 30.8773 1.46797 30.8773 3.43984C30.8773 5.41875 29.5883 6.87969 28.1429 6.87969C26.6976 6.87969 25.4086 5.41875 25.4086 3.43984C25.4086 1.46797 26.6976 0 28.1429 0ZM17.7601 0C19.1976 0 20.4945 1.46797 20.4945 3.43984C20.4945 5.41875 19.1976 6.87969 17.7601 6.87969C16.3148 6.87969 15.0179 5.41875 15.0179 3.43984C15.0179 1.46797 16.3148 0 17.7601 0ZM7.36951 0C8.81482 0 10.1039 1.46797 10.1039 3.43984C10.1039 5.41875 8.81482 6.87969 7.36951 6.87969C5.92419 6.87969 4.6281 5.41875 4.6281 3.43984C4.6281 1.46797 5.92419 0 7.36951 0ZM17.7601 8.52031C22.7601 8.67656 26.9789 8.67656 32.0414 8.84844C34.4554 10.2391 35.5726 17.3641 35.5023 19.8406L34.1273 21.2234C33.5258 17.8797 32.7679 13.4187 31.5101 12.4266V19.2703L31.8304 33.6219H30.0961L28.7914 19.1922H27.3851L26.0804 33.6219H24.3383L24.6664 19.2703L24.0414 12.3563H21.7523L21.1898 19.2469L21.5179 33.5984H19.7758L18.4633 19.1688H17.057L15.7445 33.5984H14.0101L14.3383 19.2469L13.7679 12.3563H11.4789L10.8539 19.2703L11.182 33.6219H9.43982L8.13513 19.1922H6.72888L5.40935 33.6219H3.67497L4.0031 19.2703V12.4266C2.73747 13.4187 1.97966 17.8797 1.3781 21.2234L0.00309984 19.8406C-0.0672127 17.3641 1.05779 10.2391 3.46404 8.84844C8.54138 8.67656 12.7601 8.67656 17.7601 8.52031Z"/>
</svg>
