<svg width="40" height="40" viewBox="0 0 40 40" fill="none" xmlns="http://www.w3.org/2000/svg">
<mask id="mask0_112_213" style="mask-type:luminance" maskUnits="userSpaceOnUse" x="0" y="0" width="40" height="40">
<path d="M40 0H0V40H40V0Z" fill="white"/>
</mask>
<g mask="url(#mask0_112_213)">
<path d="M15.8333 31.6666C14.8259 31.6666 11.6872 31.6666 9.36184 31.6666C8.12286 31.6666 7.31854 30.3628 7.87263 29.2546L9.29613 26.4076C9.75898 25.4819 9.99994 24.4623 9.99994 23.4273C9.99994 22.1444 9.99994 20.2389 9.99994 18.3333C9.99994 14.9999 11.6666 8.33325 19.9999 8.33325C28.3333 8.33325 29.9999 14.9999 29.9999 18.3333C29.9999 20.2389 29.9999 22.1444 29.9999 23.4273C29.9999 24.4623 30.2409 25.4819 30.7038 26.4076L32.1273 29.2546C32.6813 30.3628 31.8754 31.6666 30.6366 31.6666H24.1666M15.8333 31.6666C15.8333 34.9999 17.4999 36.6666 19.9999 36.6666C22.4999 36.6666 24.1666 34.9999 24.1666 31.6666M15.8333 31.6666C18.4368 31.6666 24.1666 31.6666 24.1666 31.6666" stroke="currentColor" stroke-width="2.66667" stroke-linejoin="round"/>
<path d="M20 8.33333V5" stroke="currentColor" stroke-width="2.66667" stroke-linecap="round" stroke-linejoin="round"/>
</g>
</svg>
