<svg width="33" height="35" viewBox="0 0 33 35" fill="none" xmlns="http://www.w3.org/2000/svg">
<path fill="currentColor" d="M16.4639 22.4167C19.2253 22.4167 21.4639 20.1782 21.4639 17.4167C21.4639 14.6553 19.2253 12.4167 16.4639 12.4167C13.7024 12.4167 11.4639 14.6553 11.4639 17.4167C11.4639 20.1782 13.7024 22.4167 16.4639 22.4167Z" stroke-width="1.5"/>
<path fill="currentColor" d="M19.406 1.00373C18.7934 0.75 18.0169 0.75 16.4637 0.75C14.9105 0.75 14.134 0.75 13.5214 1.00373C12.7046 1.34205 12.0557 1.99097 11.7174 2.80772C11.563 3.18057 11.5025 3.61417 11.4789 4.24665C11.4441 5.17613 10.9675 6.03648 10.1619 6.50155C9.35643 6.9666 8.37302 6.94923 7.55068 6.5146C6.99112 6.21883 6.58538 6.05437 6.18527 6.0017C5.30877 5.8863 4.42233 6.12382 3.72097 6.662C3.19493 7.06563 2.80665 7.73817 2.03008 9.08322C1.25352 10.4283 0.865233 11.1008 0.778683 11.7582C0.6633 12.6347 0.900817 13.5211 1.439 14.2225C1.68463 14.5427 2.02987 14.8117 2.56568 15.1483C3.35337 15.6433 3.86018 16.4865 3.86013 17.4167C3.86008 18.3468 3.35328 19.1898 2.56567 19.6847C2.02978 20.0215 1.6845 20.2907 1.43883 20.6108C0.90065 21.3122 0.663134 22.1985 0.778534 23.075C0.865067 23.7323 1.25335 24.405 2.02992 25.75C2.8065 27.095 3.19478 27.7677 3.7208 28.1712C4.42217 28.7093 5.3086 28.9468 6.1851 28.8315C6.58518 28.7788 6.9909 28.6143 7.55043 28.3187C8.37282 27.884 9.3563 27.8667 10.1619 28.3317C10.9674 28.7968 11.4441 29.6572 11.4789 30.5868C11.5026 31.2192 11.563 31.6528 11.7174 32.0257C12.0557 32.8423 12.7046 33.4913 13.5214 33.8297C14.134 34.0833 14.9105 34.0833 16.4637 34.0833C18.0169 34.0833 18.7934 34.0833 19.406 33.8297C20.2227 33.4913 20.8717 32.8423 21.2099 32.0257C21.3644 31.6528 21.4249 31.2192 21.4485 30.5867C21.4832 29.6572 21.9599 28.7968 22.7654 28.3317C23.5709 27.8665 24.5544 27.884 25.3769 28.3187C25.9364 28.6143 26.342 28.7787 26.742 28.8313C27.6185 28.9468 28.505 28.7093 29.2064 28.1712C29.7324 27.7675 30.1207 27.095 30.8972 25.7498C31.6739 24.4048 32.0622 23.7323 32.1487 23.075C32.264 22.1985 32.0265 21.312 31.4884 20.6107C31.2427 20.2905 30.8974 20.0213 30.3615 19.6847C29.574 19.1898 29.0672 18.3467 29.0672 17.4165C29.0672 16.4863 29.574 15.6435 30.3615 15.1487C30.8975 14.8118 31.2429 14.5428 31.4885 14.2225C32.0267 13.5212 32.2642 12.6348 32.1489 11.7583C32.0624 11.1009 31.674 10.4284 30.8974 9.08333C30.1209 7.73828 29.7325 7.06575 29.2065 6.66212C28.5052 6.12393 27.6187 5.88642 26.7422 6.00182C26.3422 6.05448 25.9365 6.21893 25.3769 6.51467C24.5545 6.94932 23.571 6.9667 22.7655 6.5016C21.9599 6.03652 21.4832 5.1761 21.4485 4.24657C21.4249 3.61413 21.3644 3.18055 21.2099 2.80772C20.8717 1.99097 20.2227 1.34205 19.406 1.00373Z" stroke-width="1.5"/>
</svg>
